# xmcd CD database file
#
# Track frame offsets:
#	150
#	33469
#	60919
#	98610
#	121535
#	137750
#	165710
#	191285
#	215122
#
# Disc length: 3061 seconds
#
# Revision: 0
# Processed by: cddbd v1.5.1PL0 Copyright (c) Steve Scherf et al.
# Submitted via: CDex 1.51
#
DISCID=700bf309
DTITLE=Foco - Foco
DYEAR=2000
DGENRE=Jazz
TTITLE0=la giralda
TTITLE1=nos trilhos
TTITLE2=prelúdio #5
TTITLE3=leme
TTITLE4=subindo a serra
TTITLE5=mergulho noturno
TTITLE6=parece que foi ontem
TTITLE7=palpite feliz
TTITLE8="ta vuano"
EXTD=YEAR: 2000
EXTT0=
EXTT1=
EXTT2=
EXTT3=
EXTT4=
EXTT5=
EXTT6=
EXTT7=
EXTT8=
PLAYORDER=
